<svg aria-roledescription="flowchart-v2" role="graphics-document document" viewBox="-8 -50 1494.61328125 1677.5" style="max-width: 1494.61px; background-color: transparent;" xmlns:xlink="http://www.w3.org/1999/xlink" xmlns="http://www.w3.org/2000/svg" width="100%" id="my-svg"><style>#my-svg{font-size:16px;fill:#fff;}#my-svg .error-icon{fill:hsl(82.1229050279, 83.2558139535%, 62.8431372549%);}#my-svg .error-text{fill:rgb(74.0372093022, 15.8651162791, 173.634883721);stroke:rgb(74.0372093022, 15.8651162791, 173.634883721);}#my-svg .edge-thickness-normal{stroke-width:2px;}#my-svg .edge-thickness-thick{stroke-width:3.5px;}#my-svg .edge-pattern-solid{stroke-dasharray:0;}#my-svg .edge-pattern-dashed{stroke-dasharray:3;}#my-svg .edge-pattern-dotted{stroke-dasharray:2;}#my-svg .marker{fill:#64748b;stroke:#64748b;}#my-svg .marker.cross{stroke:#64748b;}#my-svg svg{font-size:16px;}#my-svg .label{color:#fff;}#my-svg .cluster-label text{fill:rgb(74.0372093022, 15.8651162791, 173.634883721);}#my-svg .cluster-label span,#my-svg p{color:rgb(74.0372093022, 15.8651162791, 173.634883721);}#my-svg .label text,#my-svg span,#my-svg p{fill:#fff;color:#fff;}#my-svg .node rect,#my-svg .node circle,#my-svg .node ellipse,#my-svg .node polygon,#my-svg .node path{fill:#7c3aed;stroke:#5b21b6;stroke-width:1px;}#my-svg .flowchart-label text{text-anchor:middle;}#my-svg .node .katex path{fill:#000;stroke:#000;stroke-width:1px;}#my-svg .node .label{text-align:center;}#my-svg .node.clickable{cursor:pointer;}#my-svg .arrowheadPath{fill:#0b0b0b;}#my-svg .edgePath .path{stroke:#64748b;stroke-width:2.0px;}#my-svg .flowchart-link{stroke:#64748b;fill:none;}#my-svg .edgeLabel{background-color:hsl(142.1229050279, 83.2558139535%, 57.8431372549%);text-align:center;}#my-svg .edgeLabel rect{opacity:0.5;background-color:hsl(142.1229050279, 83.2558139535%, 57.8431372549%);fill:hsl(142.1229050279, 83.2558139535%, 57.8431372549%);}#my-svg .labelBkg{background-color:rgba(58, 237, 123.9999999999, 0.5);}#my-svg .cluster rect{fill:hsl(82.1229050279, 83.2558139535%, 62.8431372549%);stroke:hsl(82.1229050279, 43.2558139535%, 52.8431372549%);stroke-width:1px;}#my-svg .cluster text{fill:rgb(74.0372093022, 15.8651162791, 173.634883721);}#my-svg .cluster span,#my-svg p{color:rgb(74.0372093022, 15.8651162791, 173.634883721);}#my-svg div.mermaidTooltip{position:absolute;text-align:center;max-width:200px;padding:2px;font-size:12px;background:hsl(82.1229050279, 83.2558139535%, 62.8431372549%);border:1px solid hsl(82.1229050279, 43.2558139535%, 52.8431372549%);border-radius:2px;pointer-events:none;z-index:100;}#my-svg .flowchartTitleText{text-anchor:middle;font-size:18px;fill:#fff;}#my-svg :root{--mermaid-font-family:"trebuchet ms",verdana,arial,sans-serif;}#my-svg .inputs&gt;*{fill:#fef3c7!important;stroke:#d97706!important;color:#92400e!important;}#my-svg .inputs span{fill:#fef3c7!important;stroke:#d97706!important;color:#92400e!important;}#my-svg .inputs tspan{fill:#92400e!important;}#my-svg .ocr&gt;*{fill:#fee2e2!important;stroke:#b91c1c!important;color:#7f1d1d!important;}#my-svg .ocr span{fill:#fee2e2!important;stroke:#b91c1c!important;color:#7f1d1d!important;}#my-svg .ocr tspan{fill:#7f1d1d!important;}#my-svg .extract&gt;*{fill:#ede9fe!important;stroke:#6d28d9!important;color:#4c1d95!important;}#my-svg .extract span{fill:#ede9fe!important;stroke:#6d28d9!important;color:#4c1d95!important;}#my-svg .extract tspan{fill:#4c1d95!important;}#my-svg .eval&gt;*{fill:#dbeafe!important;stroke:#1d4ed8!important;color:#1e3a8a!important;}#my-svg .eval span{fill:#dbeafe!important;stroke:#1d4ed8!important;color:#1e3a8a!important;}#my-svg .eval tspan{fill:#1e3a8a!important;}#my-svg .triage&gt;*{fill:#dcfce7!important;stroke:#15803d!important;color:#14532d!important;}#my-svg .triage span{fill:#dcfce7!important;stroke:#15803d!important;color:#14532d!important;}#my-svg .triage tspan{fill:#14532d!important;}#my-svg .audit&gt;*{fill:#f3e8ff!important;stroke:#6b21a8!important;color:#581c87!important;}#my-svg .audit span{fill:#f3e8ff!important;stroke:#6b21a8!important;color:#581c87!important;}#my-svg .audit tspan{fill:#581c87!important;}#my-svg .ui&gt;*{fill:#f1f5f9!important;stroke:#334155!important;color:#0f172a!important;}#my-svg .ui span{fill:#f1f5f9!important;stroke:#334155!important;color:#0f172a!important;}#my-svg .ui tspan{fill:#0f172a!important;}</style><g><marker orient="auto" markerHeight="12" markerWidth="12" markerUnits="userSpaceOnUse" refY="5" refX="6" viewBox="0 0 10 10" class="marker flowchart" id="my-svg_flowchart-pointEnd"><path style="stroke-width: 1; stroke-dasharray: 1, 0;" class="arrowMarkerPath" d="M 0 0 L 10 5 L 0 10 z"/></marker><marker orient="auto" markerHeight="12" markerWidth="12" markerUnits="userSpaceOnUse" refY="5" refX="4.5" viewBox="0 0 10 10" class="marker flowchart" id="my-svg_flowchart-pointStart"><path style="stroke-width: 1; stroke-dasharray: 1, 0;" class="arrowMarkerPath" d="M 0 5 L 10 10 L 10 0 z"/></marker><marker orient="auto" markerHeight="11" markerWidth="11" markerUnits="userSpaceOnUse" refY="5" refX="11" viewBox="0 0 10 10" class="marker flowchart" id="my-svg_flowchart-circleEnd"><circle style="stroke-width: 1; stroke-dasharray: 1, 0;" class="arrowMarkerPath" r="5" cy="5" cx="5"/></marker><marker orient="auto" markerHeight="11" markerWidth="11" markerUnits="userSpaceOnUse" refY="5" refX="-1" viewBox="0 0 10 10" class="marker flowchart" id="my-svg_flowchart-circleStart"><circle style="stroke-width: 1; stroke-dasharray: 1, 0;" class="arrowMarkerPath" r="5" cy="5" cx="5"/></marker><marker orient="auto" markerHeight="11" markerWidth="11" markerUnits="userSpaceOnUse" refY="5.2" refX="12" viewBox="0 0 11 11" class="marker cross flowchart" id="my-svg_flowchart-crossEnd"><path style="stroke-width: 2; stroke-dasharray: 1, 0;" class="arrowMarkerPath" d="M 1,1 l 9,9 M 10,1 l -9,9"/></marker><marker orient="auto" markerHeight="11" markerWidth="11" markerUnits="userSpaceOnUse" refY="5.2" refX="-1" viewBox="0 0 11 11" class="marker cross flowchart" id="my-svg_flowchart-crossStart"><path style="stroke-width: 2; stroke-dasharray: 1, 0;" class="arrowMarkerPath" d="M 1,1 l 9,9 M 10,1 l -9,9"/></marker><g class="root"><g class="clusters"><g id="UI" class="cluster default flowchart-label"><rect height="102" width="871.8359375" y="1517.5" x="0" ry="0" rx="0" style=""/><g transform="translate(345.921875, 1517.5)" class="cluster-label"><foreignObject height="18.5" width="179.9921875"><div style="display: inline-block; white-space: nowrap;" xmlns="http://www.w3.org/1999/xhtml"><span class="nodeLabel">FRONTEND (React + Vite)</span></div></foreignObject></g></g><g id="Audit" class="cluster default flowchart-label"><rect height="247.5" width="536.955078125" y="1372" x="891.8359375" ry="0" rx="0" style=""/><g transform="translate(1081.5556640625, 1372)" class="cluster-label"><foreignObject height="18.5" width="157.515625"><div style="display: inline-block; white-space: nowrap;" xmlns="http://www.w3.org/1999/xhtml"><span class="nodeLabel">AUDIT-READY OUTPUT</span></div></foreignObject></g></g><g id="Triage" class="cluster default flowchart-label"><rect height="120.5" width="679.2421875" y="1201.5" x="799.37109375" ry="0" rx="0" style=""/><g transform="translate(991.23828125, 1201.5)" class="cluster-label"><foreignObject height="18.5" width="295.5078125"><div style="display: inline-block; white-space: nowrap;" xmlns="http://www.w3.org/1999/xhtml"><span class="nodeLabel">3-STATE VERDICT (never silent disqualify)</span></div></foreignObject></g></g><g id="Eval" class="cluster default flowchart-label"><rect height="361.5" width="566.228515625" y="790" x="862.029296875" ry="0" rx="0" style=""/><g transform="translate(988.3818359375, 790)" class="cluster-label"><foreignObject height="18.5" width="313.5234375"><div style="display: inline-block; white-space: nowrap;" xmlns="http://www.w3.org/1999/xhtml"><span class="nodeLabel">PER-CRITERION EVALUATION (parallelisable)</span></div></foreignObject></g></g><g id="Extract" class="cluster default flowchart-label"><rect height="259.5" width="1086.38671875" y="480.5" x="17.13671875" ry="0" rx="0" style=""/><g transform="translate(450.958984375, 480.5)" class="cluster-label"><foreignObject height="18.5" width="218.7421875"><div style="display: inline-block; white-space: nowrap;" xmlns="http://www.w3.org/1999/xhtml"><span class="nodeLabel">TENDER CRITERIA EXTRACTION</span></div></foreignObject></g></g><g id="OCR" class="cluster default flowchart-label"><rect height="241.5" width="919.205078125" y="189" x="378.10546875" ry="0" rx="0" style=""/><g transform="translate(718.4619140625, 189)" class="cluster-label"><foreignObject height="18.5" width="238.4921875"><div style="display: inline-block; white-space: nowrap;" xmlns="http://www.w3.org/1999/xhtml"><span class="nodeLabel">TWO-ENGINE OCR (auto-fallback)</span></div></foreignObject></g></g><g id="Inputs" class="cluster default flowchart-label"><rect height="139" width="491.71875" y="0" x="391.771484375" ry="0" rx="0" style=""/><g transform="translate(569.912109375, 0)" class="cluster-label"><foreignObject height="18.5" width="135.4375"><div style="display: inline-block; white-space: nowrap;" xmlns="http://www.w3.org/1999/xhtml"><span class="nodeLabel">INPUT DOCUMENTS</span></div></foreignObject></g></g></g><g class="edgePaths"><path marker-end="url(#my-svg_flowchart-pointEnd)" style="fill:none;" class="edge-thickness-normal edge-pattern-solid flowchart-link LS-TENDER LE-DOCLING" id="L-TENDER-DOCLING-0" d="M795.292,114L798.299,118.167C801.306,122.333,807.32,130.667,810.327,139C813.334,147.333,813.334,155.667,813.334,164C813.334,172.333,813.334,180.667,812.641,189.667C811.948,198.668,810.562,208.336,809.869,213.17L809.176,218.004"/><path marker-end="url(#my-svg_flowchart-pointEnd)" style="fill:none;" class="edge-thickness-normal edge-pattern-solid flowchart-link LS-TENDER LE-PADDLE" id="L-TENDER-PADDLE-0" d="M681.266,114L673.596,118.167C665.927,122.333,650.587,130.667,642.918,139C635.248,147.333,635.248,155.667,635.248,164C635.248,172.333,635.248,180.667,628.964,188.55C622.679,196.434,610.11,203.868,603.826,207.585L597.541,211.302"/><path marker-end="url(#my-svg_flowchart-pointEnd)" style="fill:none;" class="edge-thickness-normal edge-pattern-solid flowchart-link LS-BIDS LE-DOCLING" id="L-BIDS-DOCLING-0" d="M627.865,113.704L637.455,117.92C647.045,122.136,666.225,130.568,675.814,138.951C685.404,147.333,685.404,155.667,685.404,164C685.404,172.333,685.404,180.667,694.295,190.092C703.186,199.517,720.969,210.035,729.86,215.293L738.751,220.552"/><path marker-end="url(#my-svg_flowchart-pointEnd)" style="fill:none;" class="edge-thickness-normal edge-pattern-solid flowchart-link LS-BIDS LE-PADDLE" id="L-BIDS-PADDLE-0" d="M496.73,114L493.865,118.167C491.001,122.333,485.273,130.667,482.409,139C479.545,147.333,479.545,155.667,479.545,164C479.545,172.333,479.545,180.667,481.381,188.223C483.217,195.78,486.888,202.56,488.724,205.95L490.56,209.34"/><path marker-end="url(#my-svg_flowchart-pointEnd)" style="fill:none;" class="edge-thickness-normal edge-pattern-solid flowchart-link LS-DOCLING LE-FALLBACK" id="L-DOCLING-FALLBACK-0" d="M803.334,294.25L803.334,299.958C803.334,305.667,803.334,317.083,791.259,326.687C779.184,336.291,755.035,344.082,742.96,347.977L730.885,351.873"/><path marker-end="url(#my-svg_flowchart-pointEnd)" style="fill:none;" class="edge-thickness-normal edge-pattern-solid flowchart-link LS-PADDLE LE-FALLBACK" id="L-PADDLE-FALLBACK-0" d="M517.318,303.5L517.318,307.667C517.318,311.833,517.318,320.167,526.95,328.173C536.581,336.179,555.843,343.858,565.475,347.698L575.106,351.537"/><path marker-end="url(#my-svg_flowchart-pointEnd)" style="fill:none;" class="edge-thickness-normal edge-pattern-solid flowchart-link LS-FALLBACK LE-LLM_EXT" id="L-FALLBACK-LLM_EXT-0" d="M587.953,405.5L578.771,409.667C569.589,413.833,551.225,422.167,542.043,430.5C532.861,438.833,532.861,447.167,532.861,455.5C532.861,463.833,532.861,472.167,532.861,479.617C532.861,487.067,532.861,493.633,532.861,496.917L532.861,500.2"/><path marker-end="url(#my-svg_flowchart-pointEnd)" style="fill:none;" class="edge-thickness-normal edge-pattern-solid flowchart-link LS-FALLBACK LE-PAIR" id="L-FALLBACK-PAIR-0" d="M761.6,389.977L836.605,396.731C911.611,403.485,1061.623,416.992,1136.629,427.913C1211.635,438.833,1211.635,447.167,1211.635,455.5C1211.635,463.833,1211.635,472.167,1211.635,486.375C1211.635,500.583,1211.635,520.667,1211.635,540.75C1211.635,560.833,1211.635,580.917,1211.635,602.542C1211.635,624.167,1211.635,647.333,1211.635,670.5C1211.635,693.667,1211.635,716.833,1211.635,732.583C1211.635,748.333,1211.635,756.667,1211.635,765C1211.635,773.333,1211.635,781.667,1210.53,789.162C1209.425,796.657,1207.215,803.313,1206.111,806.642L1205.006,809.97"/><path marker-end="url(#my-svg_flowchart-pointEnd)" style="fill:none;" class="edge-thickness-normal edge-pattern-solid flowchart-link LS-LLM_EXT LE-CRITERIA" id="L-LLM_EXT-CRITERIA-0" d="M598.962,576L606.775,580.167C614.589,584.333,630.215,592.667,638.028,600.117C645.842,607.567,645.842,614.133,645.842,617.417L645.842,620.7"/><path marker-end="url(#my-svg_flowchart-pointEnd)" style="fill:none;" class="edge-thickness-normal edge-pattern-solid flowchart-link LS-CRITERIA LE-PAIR" id="L-CRITERIA-PAIR-0" d="M734.721,690.283L771.948,698.569C809.174,706.855,883.628,723.428,920.855,735.881C958.082,748.333,958.082,756.667,958.082,765C958.082,773.333,958.082,781.667,977.856,790.934C997.63,800.202,1037.178,810.404,1056.952,815.506L1076.725,820.607"/><path marker-end="url(#my-svg_flowchart-pointEnd)" style="fill:none;" class="edge-thickness-normal edge-pattern-solid flowchart-link LS-PAIR LE-LLM_EVAL" id="L-PAIR-LLM_EVAL-0" d="M1191.635,885.5L1191.635,889.667C1191.635,893.833,1191.635,902.167,1191.635,909.617C1191.635,917.067,1191.635,923.633,1191.635,926.917L1191.635,930.2"/><path marker-end="url(#my-svg_flowchart-pointEnd)" style="fill:none;" class="edge-thickness-normal edge-pattern-solid flowchart-link LS-LLM_EVAL LE-VERDICT" id="L-LLM_EVAL-VERDICT-0" d="M1191.635,1006L1191.635,1010.167C1191.635,1014.333,1191.635,1022.667,1191.635,1030.117C1191.635,1037.567,1191.635,1044.133,1191.635,1047.417L1191.635,1050.7"/><path marker-end="url(#my-svg_flowchart-pointEnd)" style="fill:none;" class="edge-thickness-normal edge-pattern-solid flowchart-link LS-VERDICT LE-ELIG" id="L-VERDICT-ELIG-0" d="M1292.342,1126.5L1304.246,1130.667C1316.15,1134.833,1339.958,1143.167,1351.862,1151.5C1363.766,1159.833,1363.766,1168.167,1363.766,1176.5C1363.766,1184.833,1363.766,1193.167,1363.766,1200.617C1363.766,1208.067,1363.766,1214.633,1363.766,1217.917L1363.766,1221.2"/><path marker-end="url(#my-svg_flowchart-pointEnd)" style="fill:none;" class="edge-thickness-normal edge-pattern-solid flowchart-link LS-VERDICT LE-NOT" id="L-VERDICT-NOT-0" d="M1171.143,1126.5L1168.721,1130.667C1166.298,1134.833,1161.454,1143.167,1159.032,1151.5C1156.609,1159.833,1156.609,1168.167,1156.609,1176.5C1156.609,1184.833,1156.609,1193.167,1156.609,1200.617C1156.609,1208.067,1156.609,1214.633,1156.609,1217.917L1156.609,1221.2"/><path marker-end="url(#my-svg_flowchart-pointEnd)" style="fill:none;" class="edge-thickness-normal edge-pattern-solid flowchart-link LS-VERDICT LE-REVIEW" id="L-VERDICT-REVIEW-0" d="M1081.146,1116.873L1056.261,1122.644C1031.376,1128.416,981.606,1139.958,956.721,1149.896C931.836,1159.833,931.836,1168.167,931.836,1176.5C931.836,1184.833,931.836,1193.167,931.836,1200.617C931.836,1208.067,931.836,1214.633,931.836,1217.917L931.836,1221.2"/><path marker-end="url(#my-svg_flowchart-pointEnd)" style="fill:none;" class="edge-thickness-normal edge-pattern-solid flowchart-link LS-ELIG LE-MATRIX" id="L-ELIG-MATRIX-0" d="M1363.766,1297L1363.766,1301.167C1363.766,1305.333,1363.766,1313.667,1363.766,1322C1363.766,1330.333,1363.766,1338.667,1363.766,1347C1363.766,1355.333,1363.766,1363.667,1339.559,1374.303C1315.353,1384.94,1266.941,1397.881,1242.735,1404.351L1218.528,1410.821"/><path marker-end="url(#my-svg_flowchart-pointEnd)" style="fill:none;" class="edge-thickness-normal edge-pattern-solid flowchart-link LS-NOT LE-MATRIX" id="L-NOT-MATRIX-0" d="M1156.609,1297L1156.609,1301.167C1156.609,1305.333,1156.609,1313.667,1156.609,1322C1156.609,1330.333,1156.609,1338.667,1156.609,1347C1156.609,1355.333,1156.609,1363.667,1155.603,1371.155C1154.597,1378.643,1152.585,1385.285,1151.579,1388.606L1150.573,1391.928"/><path marker-end="url(#my-svg_flowchart-pointEnd)" style="fill:none;" class="edge-thickness-normal edge-pattern-solid flowchart-link LS-REVIEW LE-MATRIX" id="L-REVIEW-MATRIX-0" d="M931.836,1297L931.836,1301.167C931.836,1305.333,931.836,1313.667,931.836,1322C931.836,1330.333,931.836,1338.667,931.836,1347C931.836,1355.333,931.836,1363.667,952.9,1373.978C973.964,1384.29,1016.091,1396.58,1037.155,1402.725L1058.219,1408.871"/><path marker-end="url(#my-svg_flowchart-pointEnd)" style="fill:none;" class="edge-thickness-normal edge-pattern-solid flowchart-link LS-MATRIX LE-EXPORT" id="L-MATRIX-EXPORT-0" d="M1213.408,1456.954L1231.407,1462.878C1249.405,1468.803,1285.402,1480.651,1303.4,1490.742C1321.398,1500.833,1321.398,1509.167,1321.398,1516.617C1321.398,1524.067,1321.398,1530.633,1321.398,1533.917L1321.398,1537.2"/><path marker-end="url(#my-svg_flowchart-pointEnd)" style="fill:none;" class="edge-thickness-normal edge-pattern-solid flowchart-link LS-MATRIX LE-RES" id="L-MATRIX-RES-0" d="M1063.307,1457.164L1045.566,1463.053C1027.825,1468.943,992.343,1480.721,974.602,1490.777C956.861,1500.833,956.861,1509.167,937.712,1518.3C918.563,1527.434,880.265,1537.368,861.115,1542.335L841.966,1547.301"/><path marker-end="url(#my-svg_flowchart-pointEnd)" style="fill:none;" class="edge-thickness-normal edge-pattern-solid flowchart-link LS-CRITERIA LE-TND" id="L-CRITERIA-TND-0" d="M556.963,692.099L524.11,700.082C491.258,708.066,425.553,724.033,392.7,736.183C359.848,748.333,359.848,756.667,359.848,765C359.848,773.333,359.848,781.667,359.848,795.875C359.848,810.083,359.848,830.167,359.848,850.25C359.848,870.333,359.848,890.417,359.848,910.5C359.848,930.583,359.848,950.667,359.848,970.75C359.848,990.833,359.848,1010.917,359.848,1031C359.848,1051.083,359.848,1071.167,359.848,1091.25C359.848,1111.333,359.848,1131.417,359.848,1145.625C359.848,1159.833,359.848,1168.167,359.848,1176.5C359.848,1184.833,359.848,1193.167,359.848,1207.375C359.848,1221.583,359.848,1241.667,359.848,1261.75C359.848,1281.833,359.848,1301.917,359.848,1316.125C359.848,1330.333,359.848,1338.667,359.848,1347C359.848,1355.333,359.848,1363.667,359.848,1377.875C359.848,1392.083,359.848,1412.167,359.848,1432.25C359.848,1452.333,359.848,1472.417,359.848,1486.625C359.848,1500.833,359.848,1509.167,359.848,1516.617C359.848,1524.067,359.848,1530.633,359.848,1533.917L359.848,1537.2"/><path marker-end="url(#my-svg_flowchart-pointEnd)" style="fill:none;" class="edge-thickness-normal edge-pattern-solid flowchart-link LS-LLM_EXT LE-DASH" id="L-LLM_EXT-DASH-0" d="M410.865,559.173L364.702,566.144C318.539,573.115,226.213,587.058,180.05,605.612C133.887,624.167,133.887,647.333,133.887,670.5C133.887,693.667,133.887,716.833,133.887,732.583C133.887,748.333,133.887,756.667,133.887,765C133.887,773.333,133.887,781.667,133.887,795.875C133.887,810.083,133.887,830.167,133.887,850.25C133.887,870.333,133.887,890.417,133.887,910.5C133.887,930.583,133.887,950.667,133.887,970.75C133.887,990.833,133.887,1010.917,133.887,1031C133.887,1051.083,133.887,1071.167,133.887,1091.25C133.887,1111.333,133.887,1131.417,133.887,1145.625C133.887,1159.833,133.887,1168.167,133.887,1176.5C133.887,1184.833,133.887,1193.167,133.887,1207.375C133.887,1221.583,133.887,1241.667,133.887,1261.75C133.887,1281.833,133.887,1301.917,133.887,1316.125C133.887,1330.333,133.887,1338.667,133.887,1347C133.887,1355.333,133.887,1363.667,133.887,1377.875C133.887,1392.083,133.887,1412.167,133.887,1432.25C133.887,1452.333,133.887,1472.417,133.887,1486.625C133.887,1500.833,133.887,1509.167,133.887,1516.617C133.887,1524.067,133.887,1530.633,133.887,1533.917L133.887,1537.2"/></g><g class="edgeLabels"><g class="edgeLabel"><g transform="translate(0, 0)" class="label"><foreignObject height="0" width="0"><div style="display: inline-block; white-space: nowrap;" xmlns="http://www.w3.org/1999/xhtml"><span class="edgeLabel"></span></div></foreignObject></g></g><g class="edgeLabel"><g transform="translate(0, 0)" class="label"><foreignObject height="0" width="0"><div style="display: inline-block; white-space: nowrap;" xmlns="http://www.w3.org/1999/xhtml"><span class="edgeLabel"></span></div></foreignObject></g></g><g class="edgeLabel"><g transform="translate(0, 0)" class="label"><foreignObject height="0" width="0"><div style="display: inline-block; white-space: nowrap;" xmlns="http://www.w3.org/1999/xhtml"><span class="edgeLabel"></span></div></foreignObject></g></g><g class="edgeLabel"><g transform="translate(0, 0)" class="label"><foreignObject height="0" width="0"><div style="display: inline-block; white-space: nowrap;" xmlns="http://www.w3.org/1999/xhtml"><span class="edgeLabel"></span></div></foreignObject></g></g><g class="edgeLabel"><g transform="translate(0, 0)" class="label"><foreignObject height="0" width="0"><div style="display: inline-block; white-space: nowrap;" xmlns="http://www.w3.org/1999/xhtml"><span class="edgeLabel"></span></div></foreignObject></g></g><g class="edgeLabel"><g transform="translate(0, 0)" class="label"><foreignObject height="0" width="0"><div style="display: inline-block; white-space: nowrap;" xmlns="http://www.w3.org/1999/xhtml"><span class="edgeLabel"></span></div></foreignObject></g></g><g class="edgeLabel"><g transform="translate(0, 0)" class="label"><foreignObject height="0" width="0"><div style="display: inline-block; white-space: nowrap;" xmlns="http://www.w3.org/1999/xhtml"><span class="edgeLabel"></span></div></foreignObject></g></g><g class="edgeLabel"><g transform="translate(0, 0)" class="label"><foreignObject height="0" width="0"><div style="display: inline-block; white-space: nowrap;" xmlns="http://www.w3.org/1999/xhtml"><span class="edgeLabel"></span></div></foreignObject></g></g><g class="edgeLabel"><g transform="translate(0, 0)" class="label"><foreignObject height="0" width="0"><div style="display: inline-block; white-space: nowrap;" xmlns="http://www.w3.org/1999/xhtml"><span class="edgeLabel"></span></div></foreignObject></g></g><g class="edgeLabel"><g transform="translate(0, 0)" class="label"><foreignObject height="0" width="0"><div style="display: inline-block; white-space: nowrap;" xmlns="http://www.w3.org/1999/xhtml"><span class="edgeLabel"></span></div></foreignObject></g></g><g class="edgeLabel"><g transform="translate(0, 0)" class="label"><foreignObject height="0" width="0"><div style="display: inline-block; white-space: nowrap;" xmlns="http://www.w3.org/1999/xhtml"><span class="edgeLabel"></span></div></foreignObject></g></g><g class="edgeLabel"><g transform="translate(0, 0)" class="label"><foreignObject height="0" width="0"><div style="display: inline-block; white-space: nowrap;" xmlns="http://www.w3.org/1999/xhtml"><span class="edgeLabel"></span></div></foreignObject></g></g><g class="edgeLabel"><g transform="translate(0, 0)" class="label"><foreignObject height="0" width="0"><div style="display: inline-block; white-space: nowrap;" xmlns="http://www.w3.org/1999/xhtml"><span class="edgeLabel"></span></div></foreignObject></g></g><g class="edgeLabel"><g transform="translate(0, 0)" class="label"><foreignObject height="0" width="0"><div style="display: inline-block; white-space: nowrap;" xmlns="http://www.w3.org/1999/xhtml"><span class="edgeLabel"></span></div></foreignObject></g></g><g class="edgeLabel"><g transform="translate(0, 0)" class="label"><foreignObject height="0" width="0"><div style="display: inline-block; white-space: nowrap;" xmlns="http://www.w3.org/1999/xhtml"><span class="edgeLabel"></span></div></foreignObject></g></g><g class="edgeLabel"><g transform="translate(0, 0)" class="label"><foreignObject height="0" width="0"><div style="display: inline-block; white-space: nowrap;" xmlns="http://www.w3.org/1999/xhtml"><span class="edgeLabel"></span></div></foreignObject></g></g><g class="edgeLabel"><g transform="translate(0, 0)" class="label"><foreignObject height="0" width="0"><div style="display: inline-block; white-space: nowrap;" xmlns="http://www.w3.org/1999/xhtml"><span class="edgeLabel"></span></div></foreignObject></g></g><g class="edgeLabel"><g transform="translate(0, 0)" class="label"><foreignObject height="0" width="0"><div style="display: inline-block; white-space: nowrap;" xmlns="http://www.w3.org/1999/xhtml"><span class="edgeLabel"></span></div></foreignObject></g></g><g class="edgeLabel"><g transform="translate(0, 0)" class="label"><foreignObject height="0" width="0"><div style="display: inline-block; white-space: nowrap;" xmlns="http://www.w3.org/1999/xhtml"><span class="edgeLabel"></span></div></foreignObject></g></g><g class="edgeLabel"><g transform="translate(0, 0)" class="label"><foreignObject height="0" width="0"><div style="display: inline-block; white-space: nowrap;" xmlns="http://www.w3.org/1999/xhtml"><span class="edgeLabel"></span></div></foreignObject></g></g><g class="edgeLabel"><g transform="translate(0, 0)" class="label"><foreignObject height="0" width="0"><div style="display: inline-block; white-space: nowrap;" xmlns="http://www.w3.org/1999/xhtml"><span class="edgeLabel"></span></div></foreignObject></g></g><g class="edgeLabel"><g transform="translate(0, 0)" class="label"><foreignObject height="0" width="0"><div style="display: inline-block; white-space: nowrap;" xmlns="http://www.w3.org/1999/xhtml"><span class="edgeLabel"></span></div></foreignObject></g></g></g><g class="nodes"><g transform="translate(133.88671875, 1568.5)" data-id="DASH" data-node="true" id="flowchart-DASH-15" class="node default ui flowchart-label"><rect height="52" width="197.7734375" y="-26" x="-98.88671875" ry="0" rx="0" style="" class="basic label-container"/><g transform="translate(-91.38671875, -18.5)" style="" class="label"><rect/><foreignObject height="37" width="182.7734375"><div style="display: inline-block; white-space: nowrap;" xmlns="http://www.w3.org/1999/xhtml"><span class="nodeLabel">/ Dashboard<br />(AI Procurement Briefing)</span></div></foreignObject></g></g><g transform="translate(359.84765625, 1568.5)" data-id="TND" data-node="true" id="flowchart-TND-16" class="node default ui flowchart-label"><rect height="52" width="154.1484375" y="-26" x="-77.07421875" ry="0" rx="0" style="" class="basic label-container"/><g transform="translate(-69.57421875, -18.5)" style="" class="label"><rect/><foreignObject height="37" width="139.1484375"><div style="display: inline-block; white-space: nowrap;" xmlns="http://www.w3.org/1999/xhtml"><span class="nodeLabel">/tender/&lt;id&gt;<br />(extracted criteria)</span></div></foreignObject></g></g><g transform="translate(560.28125, 1568.5)" data-id="BIDD" data-node="true" id="flowchart-BIDD-17" class="node default ui flowchart-label"><rect height="52" width="146.71875" y="-26" x="-73.359375" ry="0" rx="0" style="" class="basic label-container"/><g transform="translate(-65.859375, -18.5)" style="" class="label"><rect/><foreignObject height="37" width="131.71875"><div style="display: inline-block; white-space: nowrap;" xmlns="http://www.w3.org/1999/xhtml"><span class="nodeLabel">/bidders/&lt;id&gt;<br />(Bulk Evaluate All)</span></div></foreignObject></g></g><g transform="translate(760.23828125, 1568.5)" data-id="RES" data-node="true" id="flowchart-RES-18" class="node default ui flowchart-label"><rect height="52" width="153.1953125" y="-26" x="-76.59765625" ry="0" rx="0" style="" class="basic label-container"/><g transform="translate(-69.09765625, -18.5)" style="" class="label"><rect/><foreignObject height="37" width="138.1953125"><div style="display: inline-block; white-space: nowrap;" xmlns="http://www.w3.org/1999/xhtml"><span class="nodeLabel">/results/&lt;id&gt;<br />(matrix · click cell)</span></div></foreignObject></g></g><g transform="translate(1138.357421875, 1432.25)" data-id="MATRIX" data-node="true" id="flowchart-MATRIX-13" class="node default audit flowchart-label"><rect height="70.5" width="150.1015625" y="-35.25" x="-75.05078125" ry="0" rx="0" style="" class="basic label-container"/><g transform="translate(-67.55078125, -27.75)" style="" class="label"><rect/><foreignObject height="55.5" width="135.1015625"><div style="display: inline-block; white-space: nowrap;" xmlns="http://www.w3.org/1999/xhtml"><span class="nodeLabel">Evaluation Matrix<br />(rows = criteria<br />columns = bidders)</span></div></foreignObject></g></g><g transform="translate(1321.3984375, 1568.5)" data-id="EXPORT" data-node="true" id="flowchart-EXPORT-14" class="node default audit flowchart-label"><rect height="52" width="139.46875" y="-26" x="-69.734375" ry="0" rx="0" style="" class="basic label-container"/><g transform="translate(-62.234375, -18.5)" style="" class="label"><rect/><foreignObject height="37" width="124.46875"><div style="display: inline-block; white-space: nowrap;" xmlns="http://www.w3.org/1999/xhtml"><span class="nodeLabel">Markdown Report<br />(sign-off table)</span></div></foreignObject></g></g><g transform="translate(1363.765625, 1261.75)" data-id="ELIG" data-node="true" id="flowchart-ELIG-10" class="node default triage flowchart-label"><rect height="70.5" width="159.6953125" y="-35.25" x="-79.84765625" ry="0" rx="0" style="" class="basic label-container"/><g transform="translate(-72.34765625, -27.75)" style="" class="label"><rect/><foreignObject height="55.5" width="144.6953125"><div style="display: inline-block; white-space: nowrap;" xmlns="http://www.w3.org/1999/xhtml"><span class="nodeLabel">Eligible<br />(all mandatory met<br />+ scored thresholds)</span></div></foreignObject></g></g><g transform="translate(1156.609375, 1261.75)" data-id="NOT" data-node="true" id="flowchart-NOT-11" class="node default triage flowchart-label"><rect height="70.5" width="154.6171875" y="-35.25" x="-77.30859375" ry="0" rx="0" style="" class="basic label-container"/><g transform="translate(-69.80859375, -27.75)" style="" class="label"><rect/><foreignObject height="55.5" width="139.6171875"><div style="display: inline-block; white-space: nowrap;" xmlns="http://www.w3.org/1999/xhtml"><span class="nodeLabel">Not Eligible<br />(mandatory missing<br />or threshold failed)</span></div></foreignObject></g></g><g transform="translate(931.8359375, 1261.75)" data-id="REVIEW" data-node="true" id="flowchart-REVIEW-12" class="node default triage flowchart-label"><rect height="70.5" width="194.9296875" y="-35.25" x="-97.46484375" ry="0" rx="0" style="" class="basic label-container"/><g transform="translate(-89.96484375, -27.75)" style="" class="label"><rect/><foreignObject height="55.5" width="179.9296875"><div style="display: inline-block; white-space: nowrap;" xmlns="http://www.w3.org/1999/xhtml"><span class="nodeLabel">Needs Review<br />(low OCR conf<br />or ambiguous extraction)</span></div></foreignObject></g></g><g transform="translate(1191.634765625, 850.25)" data-id="PAIR" data-node="true" id="flowchart-PAIR-7" class="node default eval flowchart-label"><rect height="70.5" width="219.5546875" y="-35.25" x="-109.77734375" ry="0" rx="0" style="" class="basic label-container"/><g transform="translate(-102.27734375, -27.75)" style="" class="label"><rect/><foreignObject height="55.5" width="204.5546875"><div style="display: inline-block; white-space: nowrap;" xmlns="http://www.w3.org/1999/xhtml"><span class="nodeLabel">For each (bidder × criterion)<br />concatenate bidder docs<br />with OCR confidence labels</span></div></foreignObject></g></g><g transform="translate(1191.634765625, 970.75)" data-id="LLM_EVAL" data-node="true" id="flowchart-LLM_EVAL-8" class="node default eval flowchart-label"><rect height="70.5" width="194.40625" y="-35.25" x="-97.203125" ry="0" rx="0" style="" class="basic label-container"/><g transform="translate(-89.703125, -27.75)" style="" class="label"><rect/><foreignObject height="55.5" width="179.40625"><div style="display: inline-block; white-space: nowrap;" xmlns="http://www.w3.org/1999/xhtml"><span class="nodeLabel">GPT-4.1<br />strict JSON only<br />+ self-consistency retries</span></div></foreignObject></g></g><g transform="translate(1191.634765625, 1091.25)" data-id="VERDICT" data-node="true" id="flowchart-VERDICT-9" class="node default eval flowchart-label"><rect height="70.5" width="220.9765625" y="-35.25" x="-110.48828125" ry="0" rx="0" style="" class="basic label-container"/><g transform="translate(-102.98828125, -27.75)" style="" class="label"><rect/><foreignObject height="55.5" width="205.9765625"><div style="display: inline-block; white-space: nowrap;" xmlns="http://www.w3.org/1999/xhtml"><span class="nodeLabel">Verdict + Extracted Value<br />+ Reasoning + Confidence<br />+ Source Document filename</span></div></foreignObject></g></g><g transform="translate(532.861328125, 540.75)" data-id="LLM_EXT" data-node="true" id="flowchart-LLM_EXT-5" class="node default extract flowchart-label"><rect height="70.5" width="243.9921875" y="-35.25" x="-121.99609375" ry="0" rx="0" style="" class="basic label-container"/><g transform="translate(-114.49609375, -27.75)" style="" class="label"><rect/><foreignObject height="55.5" width="228.9921875"><div style="display: inline-block; white-space: nowrap;" xmlns="http://www.w3.org/1999/xhtml"><span class="nodeLabel">GPT-4.1<br />strict JSON-only<br />+ 2 retries with self-consistency</span></div></foreignObject></g></g><g transform="translate(645.841796875, 670.5)" data-id="CRITERIA" data-node="true" id="flowchart-CRITERIA-6" class="node default extract flowchart-label"><rect height="89" width="177.7578125" y="-44.5" x="-88.87890625" ry="0" rx="0" style="" class="basic label-container"/><g transform="translate(-81.37890625, -37)" style="" class="label"><rect/><foreignObject height="74" width="162.7578125"><div style="display: inline-block; white-space: nowrap;" xmlns="http://www.w3.org/1999/xhtml"><span class="nodeLabel">Criteria Schema<br />(category · threshold<br />· mandatory · page ref<br />· evidence-doc list)</span></div></foreignObject></g></g><g transform="translate(803.333984375, 258.75)" data-id="DOCLING" data-node="true" id="flowchart-DOCLING-2" class="node default ocr flowchart-label"><rect height="71" width="198.3671875" y="-35.5" x="-99.18359375" ry="0" rx="0" style="" class="basic label-container"/><g transform="translate(-91.68359375, -28)" style="" class="label"><rect/><foreignObject height="56" width="183.3671875"><div style="display: inline-block; white-space: nowrap;" xmlns="http://www.w3.org/1999/xhtml"><span class="nodeLabel">Docling<br />(typed PDF / DOCX<br />→ markdown · 0.95 conf)</span></div></foreignObject></g></g><g transform="translate(517.318359375, 258.75)" data-id="PADDLE" data-node="true" id="flowchart-PADDLE-3" class="node default ocr flowchart-label"><rect height="89.5" width="184.1484375" y="-44.75" x="-92.07421875" ry="0" rx="0" style="" class="basic label-container"/><g transform="translate(-84.57421875, -37.25)" style="" class="label"><rect/><foreignObject height="74.5" width="169.1484375"><div style="display: inline-block; white-space: nowrap;" xmlns="http://www.w3.org/1999/xhtml"><span class="nodeLabel">PaddleOCR<br />(scanned / photo<br />→ angle-corrected text<br />+ per-line conf)</span></div></foreignObject></g></g><g transform="translate(645.248046875, 379.5)" data-id="FALLBACK" data-node="true" id="flowchart-FALLBACK-4" class="node default ocr flowchart-label"><rect height="52" width="232.703125" y="-26" x="-116.3515625" ry="0" rx="0" style="" class="basic label-container"/><g transform="translate(-108.8515625, -18.5)" style="" class="label"><rect/><foreignObject height="37" width="217.703125"><div style="display: inline-block; white-space: nowrap;" xmlns="http://www.w3.org/1999/xhtml"><span class="nodeLabel">Auto-fallback<br />(if Docling output &lt; 100 chars)</span></div></foreignObject></g></g><g transform="translate(763.177734375, 69.5)" data-id="TENDER" data-node="true" id="flowchart-TENDER-0" class="node default inputs flowchart-label"><rect height="89" width="170.625" y="-44.5" x="-85.3125" ry="0" rx="0" style="" class="basic label-container"/><g transform="translate(-77.8125, -37)" style="" class="label"><rect/><foreignObject height="74" width="155.625"><div style="display: inline-block; white-space: nowrap;" xmlns="http://www.w3.org/1999/xhtml"><span class="nodeLabel">Tender PDF / DOCX<br />(CRPF Border Outpost<br />· dozens of criteria<br />· hundreds of pages)</span></div></foreignObject></g></g><g transform="translate(527.318359375, 69.5)" data-id="BIDS" data-node="true" id="flowchart-BIDS-1" class="node default inputs flowchart-label"><rect height="89" width="201.09375" y="-44.5" x="-100.546875" ry="0" rx="0" style="" class="basic label-container"/><g transform="translate(-93.046875, -37)" style="" class="label"><rect/><foreignObject height="74" width="186.09375"><div style="display: inline-block; white-space: nowrap;" xmlns="http://www.w3.org/1999/xhtml"><span class="nodeLabel">Bidder Submissions<br />(typed PDF · scanned cert<br />· photo of physical seal<br />· DOCX · spreadsheet)</span></div></foreignObject></g></g></g></g></g><text class="flowchartTitleText" y="-25" x="739.306640625">Theme 3 — TenderEval AI Architecture</text></svg>